<?xml version="1.0" encoding="iso-8859-1"?>
<!-- Generator: Adobe Illustrator 23.0.3, SVG Export Plug-In . SVG Version: 6.00 Build 0)  -->
<svg version="1.1" id="&#x421;&#x43B;&#x43E;&#x439;_1"
	 xmlns="http://www.w3.org/2000/svg" xmlns:xlink="http://www.w3.org/1999/xlink" x="0px" y="0px" viewBox="0 0 505.358 502.642"
	 style="enable-background:new 0 0 505.358 502.642;" xml:space="preserve" width="84px" heigth="84px">
<g>
	<path fill="#fff" d="M252.302,147.623c8.824,0,16,7.176,16,16h16c0-14.863-10.23-27.289-24-30.863v-17.137h-16v17.137
		c-13.77,3.574-24,16-24,30.863c0,17.648,14.352,32,32,32c8.824,0,16,7.176,16,16c0,8.824-7.176,16-16,16c-8.824,0-16-7.176-16-16
		h-16c0,14.863,10.23,27.289,24,30.863v17.137h16v-17.137c13.77-3.574,24-16,24-30.863c0-17.648-14.352-32-32-32
		c-8.824,0-16-7.176-16-16C236.302,154.799,243.478,147.623,252.302,147.623L252.302,147.623z M252.302,147.623"/>
	<path fill="#fff" d="M500.302,211.623v-64h-48v-144H128.743l-76.441,84.93v59.07h-48v64h48v27.129l-30.594-11.129H4.302v176h69.879
		l4.191-13.426l33.809,20.281l22.418,5.84c-1.465,3.215-2.297,6.696-2.297,10.336c0,13.473,10.734,24.41,24.09,24.879
		c0.469,13.356,11.414,24.09,24.879,24.09c2.847,0,5.633-0.586,8.289-1.527c3.191,10.121,12.551,17.527,23.711,17.527
		c5.328,0,10.504-1.816,14.765-4.953l5.922,5.922c4.528,4.535,10.559,7.031,16.969,7.031h1.375c10.359,0,19.121-6.633,22.473-15.84
		c4.511,4.871,10.824,7.84,17.527,7.84c11.105,0,20.383-7.617,23.113-17.871c2.809,1.129,5.789,1.871,8.887,1.871
		c11.105,0,20.383-7.617,23.113-17.871c2.809,1.129,5.789,1.871,8.887,1.871c13.23,0,24-10.77,24-24v-2.664
		c0-5.16-1.703-10.274-4.809-14.398l-2.648-3.532l29.703-23.765l3.875,12.359h93.879v-176h-16l-32,9.055v-25.055H500.302z
		 M132.302,23.584v60.039H78.263L132.302,23.584z M68.302,99.623h80v-80h288v128h-48V116.67l-94.426,62.953l94.426,62.953v-30.953
		h48v29.586l-74.078,20.965l6.926,22.168l-99.743,6.648c-7.457,0.496-14.625,2.442-21.32,5.785l-17.121,8.559
		c-7.602-3.688-15.91-5.711-24.434-5.711h-56.343l-37.629-18.816l5.652-18.086l-49.91-18.153v-32.945h48v30.953l94.426-62.953
		l-94.426-62.953v30.953h-48V99.623z M20.302,195.623v-32h112v-17.047l49.574,33.047l-49.574,33.047v-17.047H20.302z
		 M62.423,387.623H20.302V244.135l78.09,28.39L62.423,387.623z M119.4,396.15l-36.106-21.664l24.442-78.207l38.679,19.344h60.125
		c7.504,0,14.832,2.105,21.196,6.078l43.504,27.188c3.167,1.98,5.062,5.406,5.062,9.148v2.793c0,5.953-4.84,10.793-10.801,10.793
		c-1.953,0-3.863-0.527-5.543-1.535l-30.047-18.024c-11.984-7.175-28.168-5.175-38.05,4.688l-46.016,46.016L119.4,396.15z
		 M260.302,475.623c0,4.406-3.586,8-8,8h-1.375c-2.105,0-4.168-0.855-5.656-2.344l-6.625-6.625
		c-1.512-1.511-2.344-3.527-2.344-5.664v-1.367c0-4.406,3.586-8,8-8h1.375c2.105,0,4.168,0.855,5.656,2.344l6.625,6.625
		c1.512,1.511,2.344,3.527,2.344,5.664V475.623z M300.302,467.623c0,4.406-3.586,8-8,8c-2.504,0-4.895-1.191-6.398-3.199l-16-21.336
		c-1.036-1.375-1.602-3.082-1.602-4.801v-2.664c0-4.406,3.586-8,8-8c2.504,0,4.895,1.191,6.398,3.199l16,21.336
		c1.036,1.375,1.602,3.082,1.602,4.801V467.623z M332.302,451.623c0,4.406-3.586,8-8,8c-2.504,0-4.895-1.191-6.398-3.199l-16-21.336
		c-1.036-1.375-1.602-3.082-1.602-4.801v-2.664c0-4.406,3.586-8,8-8c2.504,0,4.895,1.191,6.398,3.199l16,21.336
		c1.036,1.375,1.602,3.082,1.602,4.801V451.623z M364.302,435.623c0,4.406-3.586,8-8,8c-2.504,0-4.895-1.191-6.398-3.199l-16-21.336
		c-1.036-1.375-1.602-3.082-1.602-4.801v-2.664c0-4.406,3.586-8,8-8c2.504,0,4.895,1.191,6.398,3.199l16,21.336
		c1.036,1.375,1.602,3.082,1.602,4.801V435.623z M363.247,402.225l-3.746-5c-4.504-6.008-11.679-9.602-19.199-9.602
		c-11.105,0-20.383,7.617-23.113,17.871c-2.809-1.129-5.789-1.871-8.887-1.871c-11.105,0-20.383,7.617-23.113,17.871
		c-2.809-1.129-5.789-1.871-8.887-1.871c-13.23,0-24,10.77-24,24v1.039c-2.137-0.613-4.336-1.039-6.625-1.039h-1.375
		c-13.23,0-24,10.77-24,24v1.367c0,1.024,0.168,2.016,0.297,3.024l-0.985,0.984c-1.671,1.664-3.984,2.625-6.343,2.625
		c-4.946,0-8.969-4.023-8.969-8.969c0-2.398,0.93-4.648,2.625-6.343l35.031-35.032l-11.312-11.312l-43.032,43.031
		c-1.671,1.664-3.984,2.625-6.343,2.625c-4.946,0-8.969-4.023-8.969-8.969c0-2.398,0.93-4.648,2.625-6.343l43.031-43.032
		l-11.312-11.312l-43.032,43.031c-1.671,1.664-3.984,2.625-6.343,2.625c-4.946,0-8.969-4.023-8.969-8.969
		c0-2.398,0.93-4.648,2.625-6.343l52.246-52.247c4.801-4.8,12.688-5.777,18.504-2.281l30.039,18.024
		c4.172,2.496,8.938,3.816,13.785,3.816c14.778,0,26.801-12.016,26.801-26.793v-2.793c0-9.301-4.711-17.797-12.594-22.719
		l-32.406-20.246l7.938-3.969c4.781-2.39,9.894-3.785,15.222-4.136l103.594-6.903l23.375,74.817L363.247,402.225z M484.302,243.943
		v143.68h-66.121L382.38,273.064L484.302,243.943z M372.302,195.623v17.047l-49.574-33.047l49.574-33.047v17.047h112v32H372.302z
		 M372.302,195.623"/>
	<rect fill="#fff" x="164.302" y="35.623" width="256" height="16"/>
	<rect fill="#fff" x="164.302" y="67.623" width="256" height="16"/>
</g>
</svg>
