<?xml version="1.0" encoding="iso-8859-1"?>
<!-- Generator: Adobe Illustrator 23.0.3, SVG Export Plug-In . SVG Version: 6.00 Build 0)  -->
<svg version="1.1" id="Layer_1" xmlns="http://www.w3.org/2000/svg" xmlns:xlink="http://www.w3.org/1999/xlink" x="0px" y="0px"
	 viewBox="-49 141 512 512" style="enable-background:new -49 141 512 512;" xml:space="preserve">
<path d="M-24.161,576.388h463.097v-39.642H407.62V401.18h-104.49v15.72h-47.652v48.018h-16.087v71.827h-8.359V392.82H87.882v56.424
	h15.673v-40.751h31.347v24.033h48.065v-24.033h32.392v56.424h-56.424v62.694h56.424v9.133h-80.031v-79.897H23.778v79.897h-47.939
	V576.388z M167.294,416.853h-16.718v-8.359h16.718V416.853z M174.608,511.939v-31.347h40.751v8.359h-15.673v15.673h15.673v7.314
	H174.608z M271.153,432.574h7.945v8.312h15.673v-8.312h8.359v23.986h15.673v-39.706h73.143v15.673H358.51V448.2h33.437v88.546
	h-8.359v-71.827H271.153V432.574z M294.771,480.592h32.392v15.673h-32.392V480.592z M255.065,480.592h24.033v31.347h63.739v-31.347
	h25.078v56.154H255.065V480.592z M71.163,472.522h16.718v16.429H71.163V472.522z M39.452,472.522H55.49v32.102h48.065v-32.102h16.1
	v64.224H39.452V472.522z M-8.487,552.419h431.75v8.295H-8.487V552.419z"/>
<polygon points="414.935,145.18 414.935,160.853 407.62,160.853 407.62,176.527 414.935,176.527 414.935,336.396 430.608,336.396 
	430.608,160.853 447.327,160.853 447.327,633.147 430.608,633.147 430.608,585.082 414.935,585.082 414.935,648.82 463,648.82 
	463,145.18 "/>
<rect x="-15.563" y="392.82" width="15.673" height="135.837"/>
<rect x="414.935" y="392.82" width="15.673" height="135.837"/>
<polygon points="-15.563,633.147 -33.327,633.147 -33.327,160.853 -15.563,160.853 -15.563,336.396 0.11,336.396 0.11,176.527 
	8.469,176.527 8.469,160.853 0.11,160.853 0.11,145.18 -49,145.18 -49,648.82 0.11,648.82 0.11,585.082 -15.563,585.082 "/>
<path d="M247.751,209.963v71.053h15.673v-24.033h39.706V241.31h-39.706v-15.673h128.522v119.357H358.51v-55.618H231.033v-24.033
	h-47.766v-72.154H15.789v151.804h-39.95v39.642h463.097v-39.642H407.62V209.963H247.751z M270.739,305.049h32.392v7.314h-32.392
	V305.049z M255.065,305.049v22.988h63.739v-22.988h24.033v39.944H231.033v-39.944H255.065z M215.359,305.049h-31.347v15.673h31.347
	v24.271h-96.131v-8.597h31.347v-47.02h-31.347v-8.359h96.131V305.049z M119.229,305.049h15.673v15.673h-15.673V305.049z
	 M79.522,208.862h39.706v16.775H79.522V208.862z M31.462,208.862h32.387v32.448h71.053v-32.448h32.691v56.481h-64.038v79.65H31.462
	V208.862z M423.264,368.962H-8.487v-8.295h431.75v8.295H423.264z"/>
<rect x="279.098" y="265.343" width="24.033" height="15.673"/>
<rect x="48.176" y="272.657" width="39.706" height="15.673"/>
<rect x="48.176" y="296.69" width="22.988" height="15.673"/>
<rect x="15.784" y="160.853" width="383.478" height="15.673"/>
</svg>
