<?xml version="1.0" encoding="utf-8"?>
<!-- Generator: Adobe Illustrator 23.0.3, SVG Export Plug-In . SVG Version: 6.00 Build 0)  -->
<svg version="1.1" id="Слой_1" xmlns="http://www.w3.org/2000/svg" xmlns:xlink="http://www.w3.org/1999/xlink" x="0px" y="0px"
	 viewBox="0 0 409.6 409.6" style="enable-background:new 0 0 409.6 409.6;" xml:space="preserve">
<style type="text/css">
	.st0{fill:#D80027;}
	.st1{fill:#FFDA44;}
</style>
<g>
	<path class="st0" d="M409.6,204.8c0,113.1-91.7,204.8-204.8,204.8C91.7,409.6,0,317.9,0,204.8C0,91.7,91.7,0,204.8,0
		C317.9,0,409.6,91.7,409.6,204.8L409.6,204.8z M409.6,204.8"/>
	<path class="st1" d="M112.1,124.7l17.7,54.4H187l-46.3,33.6l17.7,54.4l-46.3-33.6l-46.3,33.6l17.7-54.4l-46.3-33.6h57.2
		L112.1,124.7z M112.1,124.7"/>
	<path class="st1" d="M223.5,305.7L206.2,293l-17.4,12.6l6.6-20.4l-17.4-12.6h21.5l6.6-20.4l6.6,20.4h21.5l-17.4,12.6L223.5,305.7z
		 M223.5,305.7"/>
	<path class="st1" d="M268.8,243.3h-21.5l-6.6,20.4l-6.6-20.4h-21.5l17.4-12.6l-6.6-20.4l17.4,12.6l17.4-12.6l-6.6,20.4L268.8,243.3
		z M268.8,243.3"/>
	<path class="st1" d="M268.8,166.3l-17.4,12.6l6.6,20.4l-17.4-12.6l-17.4,12.6l6.6-20.4l-17.4-12.6h21.5l6.6-20.4l6.6,20.4H268.8z
		 M268.8,166.3"/>
	<path class="st1" d="M223.5,103.9l-6.6,20.4l17.4,12.6h-21.5l-6.6,20.4l-6.6-20.4h-21.5l17.4-12.6l-6.6-20.4l17.4,12.6L223.5,103.9
		z M223.5,103.9"/>
</g>
</svg>
