<?xml version="1.0" encoding="iso-8859-1"?>
<!-- Generator: Adobe Illustrator 23.0.3, SVG Export Plug-In . SVG Version: 6.00 Build 0)  -->
<svg version="1.1" id="&#x421;&#x43B;&#x43E;&#x439;_1"
	 xmlns="http://www.w3.org/2000/svg" xmlns:xlink="http://www.w3.org/1999/xlink" x="0px" y="0px" viewBox="0 0 502.642 502.642"
	 style="enable-background:new 0 0 502.642 502.642;" xml:space="preserve" width="84px" height="84px">
<g>
	<path fill="#fff" d="M330.943,94.947c0-6.617,5.387-12,12-12c6.617,0,12,5.383,12,12v3.711c0,3.207-1.246,6.215-3.512,8.488l-4.277,4.277
		c-5.297,5.297-8.211,12.329-8.211,19.809v7.715h16v-7.715c0-3.207,1.25-6.215,3.512-8.488l4.281-4.278
		c5.297-5.296,8.207-12.328,8.207-19.808v-3.711c0-15.442-12.559-28-28-28c-15.438,0-28,12.558-28,28v12h16V94.947z M330.943,94.947
		"/>
	<g>
		<defs>
			<rect fill="#fff" id="SVGID_1_" x="2.943" y="2.943" width="496" height="496"/>
		</defs>
		<clipPath id="SVGID_2_">
			<use xlink:href="#SVGID_1_"  style="overflow:visible;"/>
		</clipPath>
		<rect fill="#fff" x="338.943" y="154.947" style="clip-path:url(#SVGID_2_);" width="16" height="16"/>
		<path fill="#fff" style="clip-path:url(#SVGID_2_);" d="M495.857,116.627L458.943,87.92V42.947c0-4.418-3.582-8-8-8h-60.109l-38.977-30.32
			c-2.715-2.114-6.488-2.25-9.344-0.336l-45.992,30.656h-53.578c-4.414,0-8,3.582-8,8v44.16l-37,29.598
			c-1.895,1.511-3,3.808-3,6.242v40h-152c-13.23,0-24,10.766-24,24v232h-8c-4.414,0-8,3.582-8,8v31.996c0,22.055,17.945,40,40,40
			h352c22.059,0,40-17.945,40-40v-31.996c0-4.418-3.582-8-8-8h-8v-144h72c4.418,0,8-3.586,8-8v-144
			C498.943,120.474,497.798,118.146,495.857,116.627L495.857,116.627z M329.056,194.947l-118.113,59.055V135.888L329.056,194.947z
			 M202.943,274.947h168v112h-304v-176h128v56C194.943,271.361,198.529,274.947,202.943,274.947L202.943,274.947z M236.834,258.947
			l110.109-55.059l110.113,55.059H236.834z M364.834,194.947l118.109-59.059v118.114L364.834,194.947z M476.009,121.466
			l-17.066,8.536v-21.809L476.009,121.466z M346.584,20.802l18.183,14.145h-39.406L346.584,20.802z M442.943,50.947v87.055l-96,48
			l-96-48V50.947H442.943z M234.943,130.002l-17.238-8.618l17.238-13.8V130.002z M418.943,458.943c0,13.23-10.766,24-24,24h-352
			c-13.23,0-24-10.77-24-24v-23.996h96v7.996c0,13.23,10.77,24,24,24h160c13.234,0,24-10.77,24-24v-7.996h96V458.943z
			 M130.943,434.947h176v7.996c0,4.406-3.59,8-8,8h-160c-4.406,0-8-3.594-8-8V434.947z M402.943,418.947h-368v-232
			c0-4.41,3.594-8,8-8h152v16h-136c-4.414,0-8,3.582-8,8v192c0,4.414,3.586,8,8,8h320c4.418,0,8-3.586,8-8v-120h16V418.947z
			 M402.943,418.947"/>
	</g>
</g>
</svg>
