<?xml version="1.0" encoding="iso-8859-1"?>
<!-- Generator: Adobe Illustrator 23.0.3, SVG Export Plug-In . SVG Version: 6.00 Build 0)  -->
<svg version="1.1" id="Capa_1" xmlns="http://www.w3.org/2000/svg" xmlns:xlink="http://www.w3.org/1999/xlink" x="0px" y="0px"
	 viewBox="-54 136 522 521.224" style="enable-background:new -54 136 522 521.224;" xml:space="preserve" width="82px" heigth="82px">
<path fill="#fff" d="M463,417.945c0-7.758-2.327-14.739-6.206-20.945l-51.976-86.109c-7.758-12.412-20.945-19.394-34.909-19.394h-76.8v-52.752
	c0-4.655-3.103-7.758-7.758-7.758h-28.703C236.479,178.236,184.503,141,123.218,141s-112.485,37.236-133.43,89.212h-31.03
	c-4.655,0-7.758,3.103-7.758,7.758c0,249.794,0,337.455,0,342.109s3.103,7.758,7.758,7.758h81.455c0,1.552,0,3.879,0,6.206
	c0,32.582,26.376,59.733,59.733,59.733c32.582,0,59.733-26.376,59.733-59.733c0-2.327,0-3.879,0-6.206h131.879
	c0,1.552,0,3.879,0,6.206c0,32.582,26.376,59.733,59.733,59.733c32.582,0,59.733-26.376,59.733-59.733c0-2.327,0-3.879,0-6.206
	h44.218c4.655,0,7.758-3.103,7.758-7.758v-83.006l0,0V417.945z M369.909,307.012c8.533,0,17.067,4.655,21.721,12.412l51.976,85.333
	c2.327,3.879,3.879,8.533,3.879,13.188v71.37H293.109V307.012H369.909z M-33.485,455.958h311.079v33.358H-33.485V455.958z
	 M123.218,156.515c70.594,0,128,55.855,128,124.121s-57.406,124.121-128,124.121s-128-55.855-128-124.121
	S52.624,156.515,123.218,156.515z M-15.642,245.727c-3.103,10.861-4.655,22.497-4.655,34.909c0,76.8,64.388,139.636,143.515,139.636
	s143.515-62.836,143.515-139.636c0-12.412-1.552-24.048-4.655-34.909h15.515v193.939H-33.485V245.727H-15.642z M99.945,637.485
	c-24.048,0-44.218-19.394-44.218-44.218c0-24.824,19.394-44.218,44.218-44.218c24.048,0,44.218,19.394,44.218,44.218
	C144.164,618.091,123.994,637.485,99.945,637.485z M350.515,637.485c-24.048,0-44.218-19.394-44.218-44.218
	c0-24.824,19.394-44.218,44.218-44.218c24.048,0,44.218,19.394,44.218,44.218C394.733,618.091,374.564,637.485,350.515,637.485z
	 M447.485,572.321H406.37c-8.533-22.497-30.255-38.012-55.855-38.012s-47.321,15.515-55.855,38.012H155.024
	c-8.533-22.497-30.255-38.012-55.855-38.012s-47.321,15.515-55.855,38.012h-76.8V504.83h480.97V572.321z"/>
<path fill="#fff" d="M329.57,418.721h77.576l0,0c4.655,0,7.758-3.103,7.758-7.758c0-2.327-0.776-3.879-2.327-5.43l-38.012-61.285
	c-3.879-6.206-10.861-10.085-17.842-10.085h-27.927c-4.655,0-7.758,3.103-7.758,7.758v68.267
	C321.812,414.842,324.915,418.721,329.57,418.721z M337.327,349.679h20.17c1.552,0,3.879,0.776,4.655,2.327l31.03,50.424h-55.855
	L337.327,349.679L337.327,349.679z"/>
<path fill="#fff" d="M123.218,306.236c6.982,0,13.188-3.103,17.842-7.758l45.77,23.273c3.879,1.552,8.533,0.776,10.085-3.103
	c2.327-3.879,0.776-8.533-3.103-10.085l-45.77-23.273c0-1.552,0.776-2.327,0.776-3.879c0-11.636-7.758-20.945-17.842-24.048v-44.218
	c0-4.655-3.103-7.758-7.758-7.758s-7.758,3.103-7.758,7.758v43.442c-10.085,3.103-17.842,13.188-17.842,24.048
	C97.618,294.6,109.255,306.236,123.218,306.236z M123.218,270.552c5.43,0,10.085,4.655,10.085,10.085
	c0,5.43-4.655,10.085-10.085,10.085c-5.43,0-10.085-4.655-10.085-10.085C113.133,275.206,117.788,270.552,123.218,270.552z"/>
<path fill="#fff" d="M123.218,192.976c4.655,0,7.758-3.103,7.758-7.758v-12.412c0-4.655-3.103-7.758-7.758-7.758s-7.758,3.103-7.758,7.758
	v12.412C115.461,189.097,119.339,192.976,123.218,192.976z"/>
<path fill="#fff" d="M123.218,368.297c-4.655,0-7.758,3.103-7.758,7.758v12.412c0,4.655,3.103,7.758,7.758,7.758s7.758-3.103,7.758-7.758
	v-12.412C130.976,372.176,127.873,368.297,123.218,368.297z"/>
<path fill="#fff" d="M219.412,288.394h12.412c4.655,0,7.758-3.103,7.758-7.758c0-4.655-3.103-7.758-7.758-7.758h-12.412
	c-4.655,0-7.758,3.103-7.758,7.758C211.655,285.291,214.758,288.394,219.412,288.394z"/>
<path fill="#fff" d="M15.388,288.394H27.8c4.655,0,7.758-3.103,7.758-7.758c0-4.655-3.103-7.758-7.758-7.758H15.388
	c-4.655,0-7.758,3.103-7.758,7.758C7.63,285.291,10.733,288.394,15.388,288.394z"/>
<path fill="#fff" d="M196.139,218.576l8.533-8.533c3.103-3.103,3.103-7.758,0-10.861c-3.103-3.103-7.758-3.103-10.861,0l-8.533,8.533
	c-3.103,3.103-3.103,7.758,0,10.861S193.812,221.679,196.139,218.576z"/>
<path fill="#fff" d="M52.624,362.867l8.533-8.533c3.103-3.103,3.103-7.758,0-10.861s-7.758-3.103-10.861,0l-8.533,8.533
	c-3.103,3.103-3.103,7.758,0,10.861C44.867,365.194,49.521,365.194,52.624,362.867z"/>
<path fill="#fff" d="M196.139,342.697c-3.103-3.103-7.758-3.103-10.861,0c-3.103,3.103-3.103,7.758,0,10.861l8.533,8.533
	c3.103,3.103,7.758,3.103,10.861,0c3.103-3.103,3.103-7.758,0-10.861L196.139,342.697z"/>
<path fill="#fff" d="M50.297,218.576c3.103,3.103,7.758,3.103,10.861,0s3.103-7.758,0-10.861l-8.533-8.533c-3.103-3.103-7.758-3.103-10.861,0
	s-3.103,7.758,0,10.861L50.297,218.576z"/>
</svg>
