<?xml version="1.0" encoding="iso-8859-1"?>
<!-- Generator: Adobe Illustrator 23.0.3, SVG Export Plug-In . SVG Version: 6.00 Build 0)  -->
<svg version="1.1" id="Capa_1" xmlns="http://www.w3.org/2000/svg" xmlns:xlink="http://www.w3.org/1999/xlink" x="0px" y="0px"
	 viewBox="-49 137 516 521" style="enable-background:new -49 137 516 521;" xml:space="preserve">
<path d="M463,520.345L463,520.345V453.63c0-6.206-1.551-13.188-5.43-18.618l-44.218-72.145
	c-6.206-10.861-17.842-17.067-31.03-17.067h-71.37c-3.103,0-6.206,2.327-6.982,4.655c-0.776,0.776-0.776,2.327-0.776,3.103V453.63
	l0,0l0,0v58.958c-93.867,0-162.909,0-262.982,0c-4.655,0-7.758,3.103-7.758,7.758v69.818c0,4.655,3.103,7.758,7.758,7.758h62.061
	c0,1.552,0,2.327,0,3.879c0,27.927,23.273,51.2,51.2,51.2c28.703,0,51.2-23.273,51.2-51.2c0-1.552,0-2.327,0-3.879h110.933
	c0,1.552,0,2.327,0,3.879c0,27.927,23.273,51.2,51.2,51.2c28.703,0,51.2-23.273,51.2-51.2c0-1.552,0-2.327,0-3.879h37.236
	c4.655,0,7.758-3.103,7.758-7.758V520.345L463,520.345z M400.164,370.624l44.218,72.145c0.776,0.776,0.776,1.552,1.552,3.103
	H319.485v-84.558h63.612C390.079,361.315,397.061,365.194,400.164,370.624z M319.485,461.388h128v51.2h-128V461.388z
	 M155.024,637.485c-20.17,0-35.685-16.291-35.685-35.685c0-19.394,16.291-35.685,35.685-35.685c20.17,0,35.685,16.291,35.685,35.685
	C190.709,621.194,174.418,637.485,155.024,637.485z M366.806,637.485c-20.17,0-35.685-16.291-35.685-35.685
	c0-19.394,16.291-35.685,35.685-35.685c20.17,0,35.685,16.291,35.685,35.685C402.491,621.194,386.2,637.485,366.806,637.485z
	 M447.485,582.406h-33.358c-7.758-18.618-26.376-32.582-48.097-32.582c-21.721,0-40.339,13.188-48.097,31.806H201.57
	c-7.758-18.618-26.376-31.806-48.097-31.806s-40.339,13.188-48.097,32.582H47.194v-54.303c82.23,0,317.285,0,398.739,0v54.303
	H447.485z"/>
<path d="M106.152,494.745h175.321c4.655,0,7.758-3.103,7.758-7.758c0-58.958,0-135.758,0-163.685c0-4.655-3.103-7.758-7.758-7.758
	c-187.733,0-13.964,0-175.321,0c-4.655,0-7.758,3.103-7.758,7.758c0,29.479,0,104.727,0,163.685
	C98.394,490.867,102.273,494.745,106.152,494.745z M113.909,479.23V366.745h48.873v20.17c0,3.103,2.327,6.206,4.655,6.982
	c3.103,1.552,6.206,0.776,8.533-1.552l17.842-19.394l17.842,19.394c2.327,2.327,5.43,3.103,8.533,1.552
	c3.103-1.552,4.655-3.879,4.655-6.982v-20.17h48.873V479.23H113.909L113.909,479.23z M273.715,351.23h-48.873v-20.945h48.873V351.23
	z M210.103,330.285v37.236l-10.861-10.861c-1.552-1.552-3.879-2.327-5.43-2.327c-1.552,0-3.879,0.776-5.43,2.327l-10.085,10.861
	v-37.236H210.103L210.103,330.285z M162.782,330.285v20.945h-48.873v-20.945H162.782z"/>
<path d="M134.855,215.473c0.776,0.776,0.776,1.552,1.552,2.327l42.667,42.667c3.103,3.103,7.758,3.103,10.861,0
	s3.103-7.758,0-10.861l-29.479-29.479h193.939v107.83c0,4.655,3.103,7.758,7.758,7.758s7.758-3.103,7.758-7.758V212.37
	c0-4.655-3.103-7.758-7.758-7.758H160.455l29.479-29.479c3.103-3.103,3.103-7.758,0-10.861c-3.103-3.103-7.758-3.103-10.861,0
	l-42.667,42.667c-0.776,0.776-1.552,1.552-1.552,2.327C134.079,211.594,134.079,213.145,134.855,215.473z"/>
<path d="M79,219.352c0-27.927-22.497-51.2-49.648-51.2c-27.927,0-49.648,23.273-49.648,51.2s22.497,51.2,49.648,51.2
	S79,247.279,79,219.352z M-5.558,219.352c0-19.394,15.515-35.685,34.133-35.685s34.133,16.291,34.133,35.685
	s-15.515,35.685-34.133,35.685C9.958,255.036-5.558,238.745-5.558,219.352z"/>
<path d="M84.43,388.467c0-12.412-10.861-23.273-27.927-28.703c20.945-40.339,50.424-102.4,50.424-138.085
	c0-44.994-34.909-80.679-77.576-80.679C-14.091,141-49,176.685-49,220.903c0,37.236,29.479,99.297,50.424,138.861
	c-17.067,5.43-27.152,16.291-27.152,28.703c0,18.618,24.048,33.358,55.079,33.358S84.43,407.085,84.43,388.467z M29.352,156.515
	c34.133,0,62.836,28.703,62.836,64.388c0,41.115-44.994,125.673-62.836,156.703c-17.842-30.255-62.836-113.261-62.836-156.703
	C-33.485,185.218-5.558,156.515,29.352,156.515z M29.352,406.309c-23.273,0-39.564-9.309-39.564-17.842
	c0-4.655,6.982-11.636,19.394-14.739c7.758,13.964,13.188,22.497,13.964,24.048c1.552,2.327,3.879,3.879,6.982,3.879l0,0
	c3.103,0,5.43-1.552,6.982-3.879c0.776-1.552,6.206-10.085,13.188-24.048c12.412,3.879,19.394,10.085,19.394,14.739
	C68.915,397,51.848,406.309,29.352,406.309z"/>
</svg>
