<?xml version="1.0" encoding="utf-8"?>
<!-- Generator: Adobe Illustrator 23.0.3, SVG Export Plug-In . SVG Version: 6.00 Build 0)  -->
<svg version="1.1" xmlns="http://www.w3.org/2000/svg" xmlns:xlink="http://www.w3.org/1999/xlink" x="0px" y="0px"
	 viewBox="0 0 2342.9 1171.4" style="enable-background:new 0 0 2342.9 1171.4;" xml:space="preserve">
<style type="text/css">
	.st0{fill-rule:evenodd;clip-rule:evenodd;fill:url(#SVGID_1_);}
	.st1{fill-rule:evenodd;clip-rule:evenodd;fill:url(#SVGID_2_);}
	.st2{fill-rule:evenodd;clip-rule:evenodd;fill:#FFFFFF;}
	.st3{fill-rule:evenodd;clip-rule:evenodd;fill:url(#SVGID_3_);}
	.st4{fill-rule:evenodd;clip-rule:evenodd;fill:url(#SVGID_4_);}
	.st5{fill-rule:evenodd;clip-rule:evenodd;fill:#5EB746;}
	.st6{fill-rule:evenodd;clip-rule:evenodd;fill:url(#SVGID_5_);}
	.st7{filter:url(#Adobe_OpacityMaskFilter);}
	.st8{filter:url(#Adobe_OpacityMaskFilter_1_);}
	.st9{mask:url(#SVGID_6_);fill-rule:evenodd;clip-rule:evenodd;fill:url(#SVGID_7_);}
	.st10{fill-rule:evenodd;clip-rule:evenodd;fill:url(#SVGID_8_);}
	.st11{filter:url(#Adobe_OpacityMaskFilter_2_);}
	.st12{filter:url(#Adobe_OpacityMaskFilter_3_);}
	.st13{mask:url(#SVGID_9_);fill-rule:evenodd;clip-rule:evenodd;fill:url(#SVGID_10_);}
	.st14{fill-rule:evenodd;clip-rule:evenodd;fill:url(#SVGID_11_);}
	.st15{filter:url(#Adobe_OpacityMaskFilter_4_);}
	.st16{filter:url(#Adobe_OpacityMaskFilter_5_);}
	.st17{mask:url(#SVGID_12_);fill-rule:evenodd;clip-rule:evenodd;fill:url(#SVGID_13_);}
	.st18{fill-rule:evenodd;clip-rule:evenodd;fill:url(#SVGID_14_);}
</style>
<g id="Layer_4">
	<linearGradient id="SVGID_1_" gradientUnits="userSpaceOnUse" x1="1172.0566" y1="1061.2863" x2="1172.0566" y2="121.6867">
		<stop  offset="0" style="stop-color:#181F78"/>
		<stop  offset="1" style="stop-color:#188078"/>
	</linearGradient>
	<path class="st0" d="M505.6,121.7h964.1h77.1h204.4c40.9,34.9,74.9,84.1,103.5,135.9c-404.1,193.5-1.8,553.6,76.1,798.7
		c-22.2,3.3-44.9,5-68,5H930.3c-99.7-45.9-161.5-115-226.8-182.6c9.1-7.1,62.1-69.3,59.4-73.7c6.8-10.2,12.7-20.4,18-30.4
		c139.2-266.7-251.7-455.9-367.6-643.7C443.2,124.9,474,121.7,505.6,121.7L505.6,121.7z"/>
	<linearGradient id="SVGID_2_" gradientUnits="userSpaceOnUse" x1="470.5356" y1="573.0372" x2="1918.0542" y2="573.0372">
		<stop  offset="0" style="stop-color:#181F78"/>
		<stop  offset="1" style="stop-color:#181F78"/>
	</linearGradient>
	<path class="st1" d="M561.2,121.7H1548h13.8h188.3c45,36.6,76.2,81.3,104.7,135.9C1761.5,304.1,1710,359,1694,420.7
		c-74.6,182.2,148,402.5,224,600.8c-17.6,2.1-34.5,3.1-52.6,3.1H969.3c-95.8-44.1-130.6-85-193.4-149.9
		C1054.6,549.2,574.5,291.5,470.5,123C503,120.6,530.9,121.7,561.2,121.7L561.2,121.7z"/>
	<polygon class="st2" points="1147.7,295.7 1342.6,295.7 1342.6,494 1540.9,494 1540.9,688.9 1342.6,688.9 1342.6,887.3 
		1147.7,887.3 1147.7,688.9 949.3,688.9 949.3,494 1147.7,494 1147.7,295.7 	"/>
	<linearGradient id="SVGID_3_" gradientUnits="userSpaceOnUse" x1="17.8443" y1="573.4518" x2="1211.6743" y2="573.4518">
		<stop  offset="0" style="stop-color:#43B649"/>
		<stop  offset="1" style="stop-color:#8FC746"/>
	</linearGradient>
	<path class="st3" d="M788.8,1061.3c-333,0-765.1,5.7-770.9-469.8l0,0C16.2,447.4,62.5,341,164.4,254.6
		C86,468.7,131.7,708.9,311.4,810.4c-96.2-84.1-149.2-219.1-150.3-343c-1.4-157,74.6-319,169-465.1
		c-60.3,251.9,673.9,478.1,353,850.1C544.4,736.3,412.7,569,304.6,387.9c75.1,236.5,457.2,760.4,753.5,718.4
		c34.1-4.8,63.9-20.6,90.4-45h63.3c-38.7,43-83.9,71.5-137.8,79.2C991.9,1152.1,899.5,1143.4,788.8,1061.3L788.8,1061.3z"/>
	<linearGradient id="SVGID_4_" gradientUnits="userSpaceOnUse" x1="607.2514" y1="1130.7877" x2="607.2514" y2="241.4583">
		<stop  offset="0" style="stop-color:#43B649"/>
		<stop  offset="1" style="stop-color:#8FC746"/>
	</linearGradient>
	<path class="st4" d="M770.9,1084.3H475.5c-258.4,0-472.3-211.4-475.5-469.8l0,0C-1.7,470.4,62.5,341,164.4,254.6
		c-26.9,65.8-44.5,132.2-48,198.1c-7.7,144.4,66.7,298.9,186.2,377c-96.2-84.1-158.3-215.5-159.4-339.3
		c-1.4-157,76.7-317.4,171.1-463.5C254,278.7,986.1,503.3,665.2,875.3C526.5,759.2,393.5,548.5,304.6,387.9
		c79.1,237.4,550.5,971.5,846.6,673.4h63.3C1090.3,1207,920.2,1194.9,770.9,1084.3L770.9,1084.3z"/>
	<path class="st5" d="M1860.3,278.4c-403.9,268.3,251.8,672.2,130.9,893.1c127.9-113.3,245.7-250.5,271.5-400.4
		c32.7-189.2-32.8-358.4-192.9-476.7c175.3,68.6,264,298.9,223.9,485.1c30.2-62.5,50.4-131,48.8-201.1
		c-5.6-246.5-213.8-449-465.8-456.5c-50.6-66.3-108.7-109.5-174.7-119.1c-83.8-12.2-143.7,36.5-190.3,118.8h77.1
		c152.7-194.9,343.8,189.5,392.2,294.3c57.4,141.6,97.8,256,109.4,409C2043.7,652.2,1966.4,421.7,1860.3,278.4L1860.3,278.4z"/>
	<linearGradient id="SVGID_5_" gradientUnits="userSpaceOnUse" x1="1927.347" y1="971.4217" x2="1927.347" y2="82.7441">
		<stop  offset="0" style="stop-color:#8FC746"/>
		<stop  offset="1" style="stop-color:#43B649"/>
	</linearGradient>
	<path class="st6" d="M1866.2,286.4c-310.6,255.3,205.9,628.1,166.5,847.1C2238.9,956.1,2327.8,732,2235,496.1
		c-43.9-111.7-121.4-189.5-196.2-230.4c117.3,17.7,192.8,95.2,240.6,202c30.9,69.1,48,157,45.2,233.4
		c50.8-153.6-9.7-336.3-122.5-447c-83.5-81.8-197.6-134-322.5-137.7c-114.3-147.7-283.2-164.5-367.8,5.1
		c80.6-86.7,165.7-96.8,240.7-59c138.8,70,258.8,322,316.4,527.6c34,121.1,46.3,226.2,27.9,268.2
		C2089,806.6,1990.5,460,1866.2,286.4L1866.2,286.4z"/>
</g>
<g id="Layer_1">
	<defs>
		<filter id="Adobe_OpacityMaskFilter" filterUnits="userSpaceOnUse" x="0" y="27" width="658.6" height="860.3">
			<feFlood  style="flood-color:white;flood-opacity:1" result="back"/>
			<feBlend  in="SourceGraphic" in2="back" mode="normal"/>
		</filter>
	</defs>
	<mask maskUnits="userSpaceOnUse" x="0" y="27" width="658.6" height="860.3" id="SVGID_6_">
		<g class="st7">
			<defs>
				<filter id="Adobe_OpacityMaskFilter_1_" filterUnits="userSpaceOnUse" x="0" y="27" width="658.6" height="860.3">
					<feFlood  style="flood-color:white;flood-opacity:1" result="back"/>
					<feBlend  in="SourceGraphic" in2="back" mode="normal"/>
				</filter>
			</defs>
			<mask maskUnits="userSpaceOnUse" x="0" y="27" width="658.6" height="860.3" id="SVGID_6_">
				<g class="st8">
				</g>
			</mask>
			<linearGradient id="SVGID_7_" gradientUnits="userSpaceOnUse" x1="422.6492" y1="765.1298" x2="245.3686" y2="470.6537">
				<stop  offset="0" style="stop-color:#595959"/>
				<stop  offset="1" style="stop-color:#000000"/>
			</linearGradient>
			<path class="st9" d="M162.6,592.1c9.8,42.7,25.9,84.8,47.2,124.2c53.9-58.4,111-104.6,180.6-143.2
				c-37.6-68.1-68.9-134.2-83.5-178.2c28.3,51.1,70.9,108.9,106.8,165.5c1.9-1,3.8-2,5.7-2.9c6.5-3.3,13-6.5,19.5-9.6
				c71.1-33.7,138.3-55.3,219.7-65.1C567.1,375.8,230.9,153.9,315.6,27C205.1,192.5,142,340.7,143.5,501.4
				C143.8,531.4,155.7,562,162.6,592.1L162.6,592.1z M197.9,729.4c-51-78.6-78.6-174.5-73.7-266.4c3.6-67.5,12.7-141.1,40.2-208.4
				C55,347.3-1.7,482.1,0,624.3c1.2,97.5,40,186.9,91.3,262.9C120.5,828.1,154.3,778.9,197.9,729.4L197.9,729.4z"/>
		</g>
	</mask>
	<linearGradient id="SVGID_8_" gradientUnits="userSpaceOnUse" x1="422.6492" y1="765.1298" x2="245.3686" y2="470.6537">
		<stop  offset="0" style="stop-color:#FFFFFF"/>
		<stop  offset="1" style="stop-color:#FFFFFF"/>
	</linearGradient>
	<path class="st10" d="M162.6,592.1c9.8,42.7,25.9,84.8,47.2,124.2c53.9-58.4,111-104.6,180.6-143.2
		c-37.6-68.1-68.9-134.2-83.5-178.2c28.3,51.1,70.9,108.9,106.8,165.5c1.9-1,3.8-2,5.7-2.9c6.5-3.3,13-6.5,19.5-9.6
		c71.1-33.7,138.3-55.3,219.7-65.1C567.1,375.8,230.9,153.9,315.6,27C205.1,192.5,142,340.7,143.5,501.4
		C143.8,531.4,155.7,562,162.6,592.1L162.6,592.1z M197.9,729.4c-51-78.6-78.6-174.5-73.7-266.4c3.6-67.5,12.7-141.1,40.2-208.4
		C55,347.3-1.7,482.1,0,624.3c1.2,97.5,40,186.9,91.3,262.9C120.5,828.1,154.3,778.9,197.9,729.4L197.9,729.4z"/>
	<defs>
		<filter id="Adobe_OpacityMaskFilter_2_" filterUnits="userSpaceOnUse" x="470.5" y="121.7" width="1384.2" height="343.8">
			<feFlood  style="flood-color:white;flood-opacity:1" result="back"/>
			<feBlend  in="SourceGraphic" in2="back" mode="normal"/>
		</filter>
	</defs>
	<mask maskUnits="userSpaceOnUse" x="470.5" y="121.7" width="1384.2" height="343.8" id="SVGID_9_">
		<g class="st11">
			<defs>
				<filter id="Adobe_OpacityMaskFilter_3_" filterUnits="userSpaceOnUse" x="470.5" y="121.7" width="1384.2" height="343.8">
					<feFlood  style="flood-color:white;flood-opacity:1" result="back"/>
					<feBlend  in="SourceGraphic" in2="back" mode="normal"/>
				</filter>
			</defs>
			<mask maskUnits="userSpaceOnUse" x="470.5" y="121.7" width="1384.2" height="343.8" id="SVGID_9_">
				<g class="st12">
				</g>
			</mask>
			<linearGradient id="SVGID_10_" gradientUnits="userSpaceOnUse" x1="1167.032" y1="601.9764" x2="1163.1014" y2="232.8025">
				<stop  offset="0" style="stop-color:#595959"/>
				<stop  offset="1" style="stop-color:#000000"/>
			</linearGradient>
			<path class="st13" d="M470.5,123c55.5,89.9,217.9,205.1,315.2,342.5h362V295.7h194.9v169.8h336h2.9c2.4-15.2,6.5-30.1,12.5-44.8
				c15.9-61.8,67.5-116.6,160.7-163.1c-23.8-45.7-49.5-84.5-83.6-117.3c-6.7-6.4-13.7-12.6-21-18.6H1548h-78.3H561.2h-55.6
				c-5.8,0-11.5,0.1-17.3,0.3C482.6,122.2,476.6,122.6,470.5,123L470.5,123z"/>
		</g>
	</mask>
	<linearGradient id="SVGID_11_" gradientUnits="userSpaceOnUse" x1="1167.032" y1="601.9764" x2="1163.1014" y2="232.8025">
		<stop  offset="0" style="stop-color:#FFFFFF"/>
		<stop  offset="1" style="stop-color:#FFFFFF"/>
	</linearGradient>
	<path class="st14" d="M470.5,123c55.5,89.9,217.9,205.1,315.2,342.5h362V295.7h194.9v169.8h336h2.9c2.4-15.2,6.5-30.1,12.5-44.8
		c15.9-61.8,67.5-116.6,160.7-163.1c-23.8-45.7-49.5-84.5-83.6-117.3c-6.7-6.4-13.7-12.6-21-18.6H1548h-78.3H561.2h-55.6
		c-5.8,0-11.5,0.1-17.3,0.3C482.6,122.2,476.6,122.6,470.5,123L470.5,123z"/>
	<defs>
		<filter id="Adobe_OpacityMaskFilter_4_" filterUnits="userSpaceOnUse" x="1511.8" y="0" width="831" height="701.1">
			<feFlood  style="flood-color:white;flood-opacity:1" result="back"/>
			<feBlend  in="SourceGraphic" in2="back" mode="normal"/>
		</filter>
	</defs>
	<mask maskUnits="userSpaceOnUse" x="1511.8" y="0" width="831" height="701.1" id="SVGID_12_">
		<g class="st15">
			<defs>
				<filter id="Adobe_OpacityMaskFilter_5_" filterUnits="userSpaceOnUse" x="1511.8" y="0" width="831" height="701.1">
					<feFlood  style="flood-color:white;flood-opacity:1" result="back"/>
					<feBlend  in="SourceGraphic" in2="back" mode="normal"/>
				</filter>
			</defs>
			<mask maskUnits="userSpaceOnUse" x="1511.8" y="0" width="831" height="701.1" id="SVGID_12_">
				<g class="st16">
				</g>
			</mask>
			<linearGradient id="SVGID_13_" gradientUnits="userSpaceOnUse" x1="1827.495" y1="661.9986" x2="1952.6315" y2="316.4695">
				<stop  offset="0" style="stop-color:#595959"/>
				<stop  offset="1" style="stop-color:#000000"/>
			</linearGradient>
			<path class="st17" d="M2279.5,467.7c30.9,69.1,48,157,45.2,233.4c50.8-153.6-9.6-336.3-122.5-447
				c-83.5-81.8-197.6-134-322.5-137.7c-114.3-147.7-283.2-164.5-367.8,5.1c80.6-86.7,165.7-96.8,240.7-59
				c122,61.6,229.5,263.9,292.9,451.6c82.9,31.3,158.9,77.2,224.7,134.4c-0.6-10.4-1.6-20.6-2.8-30.8c-4.7-34-13-68.4-25.3-103.1
				c-2.2-6.2-4.5-12.4-6.9-18.5c-31.5-80.1-80.2-142.7-132.9-186.9c-20.8-17.4-42.1-32-63.3-43.6
				C2156.1,283.4,2231.7,360.9,2279.5,467.7L2279.5,467.7z M1866.2,286.4c-67.6,55.6-96,116.7-99.5,180.6h19.6
				c65.5,0,129.1,8.6,189.7,24.8c-32.1-75.1-68.9-147.9-108.3-203.5C1867.1,287.7,1866.7,287,1866.2,286.4L1866.2,286.4z"/>
		</g>
	</mask>
	<linearGradient id="SVGID_14_" gradientUnits="userSpaceOnUse" x1="1827.495" y1="661.9986" x2="1952.6315" y2="316.4695">
		<stop  offset="0" style="stop-color:#FFFFFF"/>
		<stop  offset="1" style="stop-color:#FFFFFF"/>
	</linearGradient>
	<path class="st18" d="M2279.5,467.7c30.9,69.1,48,157,45.2,233.4c50.8-153.6-9.6-336.3-122.5-447c-83.5-81.8-197.6-134-322.5-137.7
		c-114.3-147.7-283.2-164.5-367.8,5.1c80.6-86.7,165.7-96.8,240.7-59c122,61.6,229.5,263.9,292.9,451.6
		c82.9,31.3,158.9,77.2,224.7,134.4c-0.6-10.4-1.6-20.6-2.8-30.8c-4.7-34-13-68.4-25.3-103.1c-2.2-6.2-4.5-12.4-6.9-18.5
		c-31.5-80.1-80.2-142.7-132.9-186.9c-20.8-17.4-42.1-32-63.3-43.6C2156.1,283.4,2231.7,360.9,2279.5,467.7L2279.5,467.7z
		 M1866.2,286.4c-67.6,55.6-96,116.7-99.5,180.6h19.6c65.5,0,129.1,8.6,189.7,24.8c-32.1-75.1-68.9-147.9-108.3-203.5
		C1867.1,287.7,1866.7,287,1866.2,286.4L1866.2,286.4z"/>
</g>
</svg>
