<?xml version="1.0" encoding="iso-8859-1"?>
<!-- Generator: Adobe Illustrator 23.0.3, SVG Export Plug-In . SVG Version: 6.00 Build 0)  -->
<svg version="1.1" id="Capa_1" xmlns="http://www.w3.org/2000/svg" xmlns:xlink="http://www.w3.org/1999/xlink" x="0px" y="0px"
	 viewBox="-54 141 522.999 512" style="enable-background:new -54 141 522.999 512;" xml:space="preserve">
<path d="M292.954,431.275c12.131,0,22,8.542,22,19.042c0,5.522,4.478,10,10,10s10-4.478,10-10c0-18.325-13.654-33.733-32-37.915
	v-5.201c0-5.522-4.478-10-10-10s-10,4.478-10,10v5.201c-18.346,4.182-32,19.59-32,37.915c0,21.527,18.841,39.041,42,39.041
	c12.131,0,22,8.542,22,19.042s-9.869,19.042-22,19.042s-22-8.542-22-19.042c0-5.522-4.478-10-10-10s-10,4.478-10,10
	c0,18.325,13.654,33.733,32,37.915v4.32c0,5.522,4.478,10,10,10s10-4.478,10-10v-4.32c18.346-4.182,32-19.59,32-37.915
	c0-21.528-18.841-39.042-42-39.042c-12.131,0-22-8.542-22-19.041C270.954,439.817,280.823,431.275,292.954,431.275z"/>
<path d="M402.482,409.876c-13.063-20.355-31.467-36.643-53.222-47.101c-4.979-2.394-10.954-0.298-13.346,4.68
	c-2.393,4.978-0.298,10.952,4.68,13.345C378.505,399.024,403,437.963,403,480.001c0,17.988-4.434,35.827-12.821,51.591
	c-2.594,4.875-0.745,10.931,4.131,13.525c1.496,0.796,3.104,1.174,4.688,1.174c3.578,0,7.039-1.926,8.837-5.305
	C417.756,522.342,423,501.253,423,480.001C423,455.041,415.905,430.792,402.482,409.876z"/>
<path d="M308,370.001l0.579,0.001c0.016,0,0.031,0,0.048,0c5.501,0,9.973-4.446,9.999-9.953c0.025-5.523-4.431-10.021-9.953-10.047
	L308,350.001c-5.522,0-10,4.477-10,10S302.478,370.001,308,370.001z"/>
<path d="M245.407,579.202c-37.91-18.225-62.405-57.164-62.405-99.201c0-17.988,4.434-35.827,12.821-51.591
	c2.594-4.875,0.745-10.931-4.131-13.525c-4.874-2.594-10.932-0.745-13.525,4.131c-9.921,18.645-15.165,39.733-15.165,60.985
	c0,24.96,7.095,49.208,20.518,70.125c13.063,20.355,31.467,36.643,53.222,47.102c1.397,0.672,2.873,0.989,4.326,0.989
	c3.724,0,7.298-2.089,9.02-5.669C252.479,587.57,250.385,581.595,245.407,579.202z"/>
<path d="M278.002,590.001l-0.579-0.002c-5.548-0.01-10.02,4.429-10.045,9.953c-0.026,5.523,4.432,10.021,9.954,10.047l0.67,0.002
	c5.522,0,10-4.478,10-10C288.002,594.479,283.524,590.001,278.002,590.001z"/>
<path d="M338.409,316.168c-1.217-2.9-2.708-5.633-4.443-8.168H360c25.364,0,46-20.636,46-46s-20.636-46-46-46h-80.08
	c5.091-7.402,8.08-16.357,8.08-26c0-25.364-20.636-46-46-46H-3c-25.364,0-46,20.636-46,46s20.636,46,46,46h80.08
	c-5.091,7.402-8.08,16.357-8.08,26s2.988,18.598,8.08,26H51c-25.364,0-46,20.636-46,46c0,14.567,6.814,27.566,17.415,36
	C11.814,378.434,5,391.433,5,406s6.814,27.566,17.415,36C11.814,450.434,5,463.433,5,478s6.814,27.566,17.415,36
	C11.814,522.434,5,535.433,5,550c0,25.364,20.636,46,46,46h117.85c31.046,33.207,75.212,54.001,124.151,54.001
	c93.738,0,170-76.262,170-170C463.001,401.984,410.171,336.083,338.409,316.168z M-29,190c0-14.336,11.663-26,26-26h245
	c14.337,0,26,11.664,26,26s-11.663,26-26,26H-3C-17.337,216-29,204.336-29,190z M89,262c0-14.336,11.663-26,26-26h245
	c14.337,0,26,11.664,26,26s-11.663,26-26,26h-64H115C100.663,288,89,276.336,89,262z M25,334c0-14.336,11.664-26,26-26h245
	c4.028,0,7.885,0.936,11.345,2.612c-4.73-0.397-9.512-0.611-14.344-0.611c-46.945,0-89.505,19.129-120.299,49.999H51
	C36.664,360,25,348.336,25,334z M25,406c0-14.336,11.663-26,26-26h104.615c-11.352,15.553-20.129,33.095-25.703,52H51
	C36.663,432,25,420.337,25,406z M25,478c0-14.337,11.663-26,26-26h74.32c-1.517,9.113-2.319,18.464-2.319,28.001
	c0,8.146,0.589,16.156,1.702,23.999H51C36.663,504,25,492.337,25,478z M51,576c-14.337,0-26-11.663-26-26s11.663-26,26-26h77.786
	c5.046,18.813,13.243,36.346,23.993,52H51z M293.001,630.001c-82.71,0-150-67.29-150-150s67.29-150,150-150s150,67.29,150,150
	S375.711,630.001,293.001,630.001z"/>
</svg>
