<?xml version="1.0" encoding="iso-8859-1"?>
<!-- Generator: Adobe Illustrator 23.0.3, SVG Export Plug-In . SVG Version: 6.00 Build 0)  -->
<svg version="1.1" id="Capa_1" xmlns="http://www.w3.org/2000/svg" xmlns:xlink="http://www.w3.org/1999/xlink" x="0px" y="0px"
	 viewBox="26.726 141 360.547 512" style="enable-background:new 26.726 141 360.547 512;" xml:space="preserve">
<path fill="#181f78" d="M207,653c-99.405,0-180.274-82.135-180.274-183.094V324.099C26.726,223.14,107.595,141,207,141
	c99.399,0,180.274,82.14,180.274,183.099v146.366C387.274,571.114,306.399,653,207,653z M207,174.907
	c-80.705,0-146.366,66.927-146.366,149.192v145.801c0,82.265,65.661,149.192,146.366,149.192
	c80.711,0,146.366-66.673,146.366-148.627V324.099C353.366,241.835,287.711,174.907,207,174.907z"/>
<path fill="#181f78" d="M207,374.395c-9.364,0-16.954-7.59-16.954-16.954v-59.338c0-9.364,7.59-16.954,16.954-16.954
	c9.364,0,16.954,7.59,16.954,16.954v59.338C223.954,366.806,216.364,374.395,207,374.395z"/>
</svg>
