<?xml version="1.0" encoding="iso-8859-1"?>
<!-- Generator: Adobe Illustrator 23.0.3, SVG Export Plug-In . SVG Version: 6.00 Build 0)  -->
<svg version="1.1" id="Capa_1" xmlns="http://www.w3.org/2000/svg" xmlns:xlink="http://www.w3.org/1999/xlink" x="0px" y="0px"
	 viewBox="-33 157.054 480 479.946" style="enable-background:new -33 157.054 480 479.946;" xml:space="preserve" width="84px" height="84px">
<path fill="#fff" d="M47,599.072V637h16v-40c0.002-1.358-0.345-2.694-1.008-3.88L-9.952,463.616c-4.614-8.324-7.039-17.683-7.048-27.2V285
	c0-8.837,7.163-16,16-16s16,7.163,16,16v114.824c-10.01,11.633-9.78,28.902,0.536,40.264L81.08,512.2l11.84-10.76l-65.544-72.12
	c-5.232-5.74-5.02-14.581,0.48-20.064c2.843-2.787,6.683-4.319,10.664-4.256c3.98,0.1,7.742,1.836,10.4,4.8l56.136,62.4
	c0.714,0.716,1.521,1.332,2.4,1.832c31.826,18.24,51.482,52.094,51.544,88.776V637h16v-80h-0.192
	c-2.054-40.002-24.123-76.276-58.704-96.488l-55.264-61.4c-5.584-6.257-13.512-9.918-21.896-10.112
	c-2.677-0.035-5.348,0.28-7.944,0.936V285c0-17.673-14.327-32-32-32s-32,14.327-32,32v151.416
	c0.007,12.241,3.126,24.28,9.064,34.984L47,599.072z"/>
<path fill="#fff" d="M415,253c-17.673,0-32,14.327-32,32v104.952c-10.878-2.809-22.412,0.731-29.84,9.16l-55.24,61.384
	c-34.63,20.172-56.724,56.477-58.728,96.504H239v80h16v-74.192c0.082-36.832,19.889-70.797,51.904-89.008
	c0.762-0.419,1.452-0.959,2.04-1.6l56.104-62.4c2.658-2.964,6.42-4.7,10.4-4.8c3.984-0.081,7.83,1.455,10.664,4.256
	c5.5,5.483,5.712,14.324,0.48,20.064l-65.512,72.104l11.84,10.776l65.544-72.096c10.326-11.365,10.556-28.645,0.536-40.28V285
	c0-8.837,7.163-16,16-16s16,7.163,16,16v150.568c-0.012,10.06-2.719,19.933-7.84,28.592l-71.2,128.976
	c-0.641,1.187-0.971,2.516-0.96,3.864v40h16v-37.936l70.056-126.984c6.508-11.068,9.941-23.673,9.944-36.512V285
	C447,267.327,432.673,253,415,253z"/>
<path fill="#fff" d="M343,378.944V237c0-0.708-0.094-1.413-0.28-2.096c-0.064-0.224-0.184-0.416-0.264-0.64
	c-0.142-0.439-0.321-0.864-0.536-1.272c-0.136-0.224-0.32-0.408-0.472-0.624c-0.239-0.362-0.507-0.704-0.8-1.024
	c-0.176-0.176-0.4-0.304-0.592-0.464c-0.315-0.296-0.655-0.563-1.016-0.8h-0.08l0,0l-128-72c-2.434-1.368-5.406-1.368-7.84,0
	l-128,72l0,0h-0.08c-0.361,0.237-0.701,0.504-1.016,0.8c-0.192,0.16-0.416,0.288-0.592,0.464c-0.293,0.32-0.561,0.662-0.8,1.024
	c-0.152,0.216-0.336,0.4-0.472,0.624c-0.215,0.408-0.394,0.833-0.536,1.272c-0.08,0.224-0.2,0.416-0.264,0.64
	c-0.213,0.68-0.334,1.384-0.36,2.096v141.944c0.003,2.855,1.527,5.492,4,6.92l128,74.056l0,0c0.48,0.261,0.987,0.47,1.512,0.624
	c0.152,0.048,0.288,0.136,0.432,0.176c1.347,0.363,2.765,0.363,4.112,0c0.144-0.04,0.28-0.128,0.432-0.176
	c0.525-0.154,1.031-0.363,1.512-0.624l0,0l128-74.056C341.473,384.436,342.997,381.799,343,378.944z M207,174.176l44.128,24.8
	L139.448,261.8L95.32,237L207,174.176z M199,439.136l-112-64.8V250.68l112,63V439.136z M207,299.824L155.8,271l111.64-62.8
	l51.24,28.8L207,299.824z M327,374.328l-112,64.8V313.68l112-63V374.328z"/>
<rect fill="#fff" x="295" y="357" width="16" height="16"/>
<rect fill="#fff" x="263" y="373" width="16" height="16"/>
<rect fill="#fff" x="231" y="389" width="16" height="16"/>
</svg>
