<?xml version="1.0" encoding="utf-8"?>
<!-- Generator: Adobe Illustrator 23.0.3, SVG Export Plug-In . SVG Version: 6.00 Build 0)  -->
<svg version="1.1" id="Слой_1" xmlns="http://www.w3.org/2000/svg" xmlns:xlink="http://www.w3.org/1999/xlink" x="0px" y="0px"
	 viewBox="0 0 409.6 409.6" style="enable-background:new 0 0 409.6 409.6;" xml:space="preserve">
<style type="text/css">
	.st0{fill:#F0F0F0;}
	.st1{fill:#0052B4;}
	.st2{fill:#D80027;}
</style>
<g>
	<path class="st0" d="M409.6,204.8c0,113.1-91.7,204.8-204.8,204.8C91.7,409.6,0,317.9,0,204.8C0,91.7,91.7,0,204.8,0
		C317.9,0,409.6,91.7,409.6,204.8L409.6,204.8z M409.6,204.8"/>
	<path class="st1" d="M396.9,276c8.2-22.2,12.7-46.2,12.7-71.2s-4.5-49-12.7-71.2H12.7C4.5,155.8,0,179.8,0,204.8s4.5,49,12.7,71.2
		l192.1,17.8L396.9,276z M396.9,276"/>
	<path class="st2" d="M204.8,409.6c88.1,0,163.1-55.6,192.1-133.6H12.7C41.7,354,116.7,409.6,204.8,409.6L204.8,409.6z M204.8,409.6
		"/>
</g>
</svg>
