<?xml version="1.0" encoding="utf-8"?>
<!-- Generator: Adobe Illustrator 23.0.3, SVG Export Plug-In . SVG Version: 6.00 Build 0)  -->
<svg version="1.1" id="Слой_1" xmlns="http://www.w3.org/2000/svg" xmlns:xlink="http://www.w3.org/1999/xlink" x="0px" y="0px"
	 viewBox="0 0 384 384" style="enable-background:new 0 0 384 384;" xml:space="preserve">
<style type="text/css">
	.st0{fill:#039BE5;}
	.st1{fill:#FFFFFF;}
</style>
<g>
	<path class="st0" d="M384,192c0,106-86,192-192,192S0,298,0,192S86,0,192,0S384,86,384,192L384,192z M384,192"/>
	<path class="st1" d="M87.9,187.8L273,116.5c8.6-3.1,16.1,2.1,13.3,15.1l0,0L254.8,280c-2.3,10.5-8.6,13.1-17.3,8.1l-48-35.4
		l-23.2,22.3c-2.6,2.6-4.7,4.7-9.7,4.7L160,231l89-80.4c3.9-3.4-0.9-5.3-6-1.9l-109.9,69.2l-47.4-14.8
		C75.4,199.8,75.2,192.8,87.9,187.8L87.9,187.8z M87.9,187.8"/>
</g>
</svg>
