<?xml version="1.0" encoding="iso-8859-1"?>
<!-- Generator: Adobe Illustrator 23.0.3, SVG Export Plug-In . SVG Version: 6.00 Build 0)  -->
<svg version="1.1" id="&#x421;&#x43B;&#x43E;&#x439;_1"
	 xmlns="http://www.w3.org/2000/svg" xmlns:xlink="http://www.w3.org/1999/xlink" x="0px" y="0px" viewBox="0 0 521.66 520.641"
	 style="enable-background:new 0 0 521.66 520.641;" xml:space="preserve">
<g>
	<path d="M336.55,505.39c-2.934,0-5.742-1.516-7.313-4.137l-20.445-34.074c-6.16-10.207-4.734-18.957-2.449-24.488
		c8.797-21.368,45.816-31.989,52.793-33.825c2.984-1.382,19.48-9.863,19.48-28.101c0-0.547,0.051-1.102,0.164-1.637
		c0.571-2.922,14.567-71.516,59.18-71.516c13.051,0,29.383,1.317,39.922,11.582l21.52,21.52c2.355,2.348,3.125,5.863,1.972,8.984
		c-27.07,73.411-87.711,131.457-162.211,155.286C338.292,505.253,337.421,505.39,336.55,505.39L336.55,505.39z M395.667,381.722
		c-0.59,30.508-29.262,42.625-30.5,43.129c-0.367,0.16-0.758,0.281-1.152,0.383c-13.828,3.5-37.438,13.105-41.903,23.96
		c-0.8,1.954-1.382,4.762,1.297,9.188l16.922,28.211c64.891-22.844,117.754-73.699,143.071-137.711l-17.536-17.539
		c-4.711-4.582-13.347-6.664-27.929-6.664C409.515,324.671,397.144,375.179,395.667,381.722L395.667,381.722z M395.667,381.722"/>
	<path d="M431.78,133.159c-23.527,0-42.668-19.136-42.668-42.664c0-23.527,19.141-42.664,42.668-42.664
		c23.52,0,42.661,19.137,42.661,42.664C474.441,114.023,455.3,133.159,431.78,133.159L431.78,133.159z M431.78,64.898
		c-14.117,0-25.601,11.484-25.601,25.597c0,14.114,11.484,25.598,25.601,25.598c14.11,0,25.594-11.484,25.594-25.598
		C457.374,76.382,445.89,64.898,431.78,64.898L431.78,64.898z M431.78,64.898"/>
	<path d="M431.78,227.019c-2.281,0-4.464-0.903-6.07-2.532c-3.23-3.265-79.262-80.675-79.262-128.882
		c0-49.871,38.278-90.45,85.332-90.45c47.047,0,85.325,40.579,85.325,90.45c0,48.199-76.028,125.617-79.262,128.882
		C436.237,226.116,434.058,227.019,431.78,227.019L431.78,227.019z M431.78,22.234c-37.64,0-68.269,32.91-68.269,73.382
		c0,31.274,44.758,85.481,68.269,110.563c23.504-25.098,68.262-79.324,68.262-110.563C500.042,55.144,469.417,22.234,431.78,22.234
		L431.78,22.234z M431.78,22.234"/>
	<g>
		<defs>
			<rect id="SVGID_1_" x="5.132" y="5.132" width="512" height="512"/>
		</defs>
		<clipPath id="SVGID_2_">
			<use xlink:href="#SVGID_1_"  style="overflow:visible;"/>
		</clipPath>
		<path style="clip-path:url(#SVGID_2_);" d="M90.46,423.28c-23.523,0-42.664-19.14-42.664-42.668
			c0-23.523,19.141-42.664,42.664-42.664c23.527,0,42.664,19.141,42.664,42.664C133.124,404.14,113.987,423.28,90.46,423.28
			L90.46,423.28z M90.46,355.015c-14.113,0-25.598,11.488-25.598,25.597c0,14.114,11.485,25.602,25.598,25.602
			c14.117,0,25.602-11.488,25.602-25.602C116.062,366.503,104.577,355.015,90.46,355.015L90.46,355.015z M90.46,355.015"/>
		<path style="clip-path:url(#SVGID_2_);" d="M90.46,517.14c-2.277,0-4.461-0.903-6.066-2.531
			c-3.235-3.27-79.262-80.68-79.262-128.887c0-49.871,38.281-90.445,85.328-90.445c47.051,0,85.332,40.574,85.332,90.445
			c0,48.199-76.031,125.617-79.262,128.887C94.925,516.237,92.741,517.14,90.46,517.14L90.46,517.14z M90.46,312.351
			c-37.64,0-68.262,32.91-68.262,73.383c0,31.273,44.754,85.48,68.262,110.562c23.512-25.098,68.266-79.324,68.266-110.562
			C158.726,345.261,128.097,312.351,90.46,312.351L90.46,312.351z M90.46,312.351"/>
		<path style="clip-path:url(#SVGID_2_);" d="M205.132,510.339c-6.055,0-14.945-2.473-29.359-7.816l-1.426-0.528
			c-12.465-4.488-24.66-10-36.246-16.367c-5.703-3.125-11.469-6.586-17.125-10.308c-1.996-1.305-3.352-3.387-3.739-5.75
			c-0.382-2.364,0.231-4.782,1.707-6.649c26.016-33.156,39.77-59.848,39.77-77.199c0-27.078-13.812-51.867-36.043-64.695
			c-2.094-1.211-3.582-3.258-4.082-5.622c-0.504-2.375,0.023-4.839,1.457-6.8c11.125-15.239,16.766-32.551,16.766-51.461
			c0-6.641-2.239-12.008-6.836-16.403c-11.278-10.769-37.125-16.023-70.992-14.464c-16.86,0.793-32.688-4.372-44.473-14.485
			c-2.406-2.066-3.465-5.301-2.758-8.387c15.242-66.027,57.16-124.406,115.031-160.156c5.094-3.148,12.332-2.277,25.789,3.082
			c6.219,2.465,11.868,5.996,16.774,10.485c8.34,7.621,14.652,18.148,18.773,31.316c4.867,15.477,10.965,47.625,2.961,69.824
			c-0.664,1.844-1.543,3.59-2.437,5.34l-0.797,1.555c-5.453,11.144-4.77,23.789,1.871,34.711
			c7.109,11.711,19.836,19.183,33.199,19.5c24.27,0.574,58.254,11.414,82.317,59.789c2.039,4.105,3.789,8.242,5.195,12.273
			c20.652,59.266-22.789,97.278-61.129,130.824c-9.418,8.243-18.32,16.024-26.051,23.903c-5.015,5.109-7.953,10.051-8.722,14.656
			c-0.614,3.738,0.019,8.063,0.691,12.637l0.293,1.98c1.141,8.039,1.781,16.238,1.926,24.363c0.062,3.473-1.528,6.614-4.332,8.61
			C211.011,509.566,208.511,510.339,205.132,510.339L205.132,510.339z M138.132,465.96c2.73,1.645,5.473,3.223,8.184,4.719
			c10.812,5.937,22.187,11.082,33.82,15.273l1.57,0.571c9.145,3.39,14.856,5.105,18.387,5.941c-0.289-5-0.785-10.012-1.484-14.953
			l-0.274-1.902c-0.793-5.411-1.687-11.543-0.641-17.903c1.352-8.144,5.852-16.168,13.379-23.828
			c8.184-8.34,17.321-16.324,27-24.789c35.942-31.449,73.118-63.973,56.247-112.359c-1.168-3.364-2.645-6.828-4.36-10.301
			c-20.273-40.746-47.871-49.859-67.445-50.313c-19.121-0.461-37.27-11.074-47.383-27.695c-9.719-16-10.664-34.621-2.609-51.082
			l0.957-1.883c0.554-1.078,1.14-2.152,1.55-3.297c5.375-14.91,2.477-40.929-3.183-58.925c-3.215-10.258-7.926-18.27-14-23.825
			c-3.379-3.089-7.274-5.507-11.574-7.222c-7.012-2.793-10.434-3.477-11.782-3.637C82.679,91.007,44.757,142.956,29.683,201.894
			c7.937,5.23,17.84,7.84,28.515,7.328c27.614-1.262,64.532,0.992,83.563,19.164c8.039,7.68,12.117,17.348,12.117,28.75
			c0,19.266-5.18,37.785-15.07,54.055c23.004,16.773,36.972,44.55,36.972,74.523C175.792,405.753,163.128,432.718,138.132,465.96
			L138.132,465.96z M138.132,465.96"/>
		<path style="clip-path:url(#SVGID_2_);" d="M261.12,517.14c-49.961,0-98.418-14.453-140.136-41.805
			c-1.997-1.305-3.352-3.387-3.735-5.75c-0.387-2.363,0.231-4.777,1.703-6.648c26.024-33.157,39.782-59.856,39.782-77.203
			c0-40.461-30.629-73.383-68.262-73.383c-22.711,0-43.871,12.109-56.598,32.383c-1.762,2.789-4.984,4.316-8.226,3.933
			c-3.278-0.39-6.036-2.629-7.086-5.75c-8.891-26.43-13.403-53.93-13.403-81.765c0-141.149,114.836-255.989,255.989-255.989
			c41.246,0,80.703,9.578,117.273,28.469c2.305,1.195,3.934,3.363,4.445,5.898c0.512,2.532-0.164,5.161-1.816,7.149
			c-11.293,13.527-17.512,30.894-17.512,48.926c0,31.257,44.715,85.433,68.231,110.531c9.804-10.539,29.683-32.848,45.496-56.613
			c1.699-2.559,4.625-3.871,7.699-3.789c3.055,0.214,5.77,2.058,7.098,4.824c16.64,34.668,25.07,71.879,25.07,110.586
			C517.105,402.304,402.273,517.14,261.12,517.14L261.12,517.14z M138.132,465.968c37.121,22.34,79.441,34.105,122.988,34.105
			c131.739,0,238.922-107.183,238.922-238.921c0-31.11-5.836-61.188-17.375-89.594c-20.898,28.629-43.734,51.82-44.824,52.929
			c-3.195,3.25-8.922,3.25-12.133,0c-3.23-3.265-79.262-80.675-79.262-128.882c0-18.364,5.309-36.203,15.102-51.239
			c-31.563-14.703-65.293-22.144-100.43-22.144c-131.742,0-238.922,107.183-238.922,238.922c0,20.539,2.637,40.89,7.844,60.703
			c15.852-16.879,37.473-26.57,60.418-26.57c47.051,0,85.332,40.574,85.332,90.445C175.792,405.753,163.128,432.718,138.132,465.968
			L138.132,465.968z M138.132,465.968"/>
	</g>
	<path d="M192.851,355.015c-1.52,0-3.059-0.41-4.449-1.246c-4.02-2.457-5.29-7.703-2.832-11.731
		c0.214-0.351,5.386-8.781,14.812-21.711c2.781-3.797,8.113-4.648,11.918-1.867c3.809,2.774,4.644,8.106,1.871,11.91
		c-8.977,12.305-13.992,20.473-14.043,20.559C198.523,353.566,195.726,355.015,192.851,355.015L192.851,355.015z M192.851,355.015"
		/>
	<path d="M234.984,299.308c-1.997,0-4.004-0.703-5.625-2.125c-3.539-3.11-3.891-8.5-0.786-12.043
		c10.258-11.672,20.856-22.586,31.497-32.442c3.449-3.191,8.859-3.015,12.058,0.477c3.199,3.457,2.996,8.855-0.469,12.059
		c-10.215,9.437-20.394,19.933-30.269,31.171C239.71,298.316,237.355,299.308,234.984,299.308L234.984,299.308z M300.234,239.495
		c-2.68,0-5.325-1.254-6.981-3.617c-2.715-3.859-1.793-9.184,2.067-11.894c13.175-9.282,26.511-17.04,39.636-23.055
		c4.281-1.953,9.352-0.094,11.313,4.199c1.965,4.281,0.086,9.352-4.196,11.316c-12.179,5.579-24.601,12.813-36.925,21.489
		C303.648,238.984,301.933,239.495,300.234,239.495L300.234,239.495z M300.234,239.495"/>
	<path d="M380.691,203.718c-4.063,0-7.657-2.898-8.391-7.031c-0.824-4.633,2.262-9.063,6.906-9.899
		c8.992-1.601,18.074-2.422,26.973-2.422c4.711,0,8.535,3.813,8.535,8.532c0,4.718-3.824,8.535-8.535,8.535
		c-7.902,0-15.965,0.726-23.969,2.16C381.698,203.675,381.194,203.718,380.691,203.718L380.691,203.718z M380.691,203.718"/>
</g>
</svg>
