<?xml version="1.0" encoding="utf-8"?>
<!-- Generator: Adobe Illustrator 23.0.3, SVG Export Plug-In . SVG Version: 6.00 Build 0)  -->
<svg version="1.1" id="Слой_1" xmlns="http://www.w3.org/2000/svg" xmlns:xlink="http://www.w3.org/1999/xlink" x="0px" y="0px"
	 viewBox="0 0 409.6 409.6" style="enable-background:new 0 0 409.6 409.6;" xml:space="preserve">
<style type="text/css">
	.st0{fill:#F0F0F0;}
	.st1{fill:#0052B4;}
	.st2{fill:#D80027;}
</style>
<g>
	<path class="st0" d="M409.6,204.8c0,113.1-91.7,204.8-204.8,204.8C91.7,409.6,0,317.9,0,204.8C0,91.7,91.7,0,204.8,0
		C317.9,0,409.6,91.7,409.6,204.8L409.6,204.8z M409.6,204.8"/>
	<path class="st1" d="M42.3,80.1C26.3,101,14.1,125.2,7.1,151.4h106.5L42.3,80.1z M42.3,80.1"/>
	<path class="st1" d="M402.5,151.4c-7.1-26.2-19.2-50.3-35.3-71.3L296,151.4H402.5z M402.5,151.4"/>
	<path class="st1" d="M7.1,258.2c7.1,26.2,19.2,50.3,35.3,71.3l71.3-71.3H7.1z M7.1,258.2"/>
	<path class="st1" d="M329.5,42.3c-20.9-16.1-45.1-28.2-71.3-35.3v106.5L329.5,42.3z M329.5,42.3"/>
	<path class="st1" d="M80.1,367.3c20.9,16.1,45.1,28.2,71.3,35.3V296L80.1,367.3z M80.1,367.3"/>
	<path class="st1" d="M151.4,7.1c-26.2,7.1-50.3,19.2-71.3,35.3l71.3,71.3V7.1z M151.4,7.1"/>
	<path class="st1" d="M258.2,402.5c26.2-7.1,50.3-19.2,71.3-35.3L258.2,296V402.5z M258.2,402.5"/>
	<path class="st1" d="M296,258.2l71.3,71.3c16.1-20.9,28.2-45.1,35.3-71.3H296z M296,258.2"/>
	<path class="st2" d="M407.9,178.1H231.5V1.7C222.8,0.6,213.9,0,204.8,0c-9.1,0-18,0.6-26.7,1.7v176.4H1.7
		C0.6,186.8,0,195.7,0,204.8c0,9.1,0.6,18,1.7,26.7h176.4v176.4c8.7,1.1,17.7,1.7,26.7,1.7c9.1,0,18-0.6,26.7-1.7V231.5h176.4
		c1.1-8.7,1.7-17.7,1.7-26.7C409.6,195.7,409,186.8,407.9,178.1L407.9,178.1z M407.9,178.1"/>
	<path class="st2" d="M258.2,258.2l91.4,91.4c4.2-4.2,8.2-8.6,12-13.1l-78.2-78.2H258.2z M258.2,258.2"/>
	<path class="st2" d="M151.4,258.2L151.4,258.2L60,349.6c4.2,4.2,8.6,8.2,13.1,12l78.2-78.2V258.2z M151.4,258.2"/>
	<path class="st2" d="M151.4,151.4L60,60c-4.2,4.2-8.2,8.6-12,13.1l78.2,78.2H151.4z M151.4,151.4"/>
	<path class="st2" d="M258.2,151.4L349.6,60c-4.2-4.2-8.6-8.2-13.1-12l-78.2,78.2V151.4z M258.2,151.4"/>
</g>
</svg>
