<?xml version="1.0" encoding="utf-8"?>
<!-- Generator: Adobe Illustrator 23.0.3, SVG Export Plug-In . SVG Version: 6.00 Build 0)  -->
<svg version="1.1" id="Слой_1" xmlns="http://www.w3.org/2000/svg" xmlns:xlink="http://www.w3.org/1999/xlink" x="0px" y="0px"
	 viewBox="0 0 384 384" style="enable-background:new 0 0 384 384;" xml:space="preserve">
<style type="text/css">
	.st0{clip-path:url(#SVGID_2_);fill:#ECEFF1;}
	.st1{clip-path:url(#SVGID_2_);fill:#4CAF50;}
	.st2{fill:#FAFAFA;}
</style>
<g>
	<g>
		<defs>
			<rect id="SVGID_1_" width="384" height="384"/>
		</defs>
		<clipPath id="SVGID_2_">
			<use xlink:href="#SVGID_1_"  style="overflow:visible;"/>
		</clipPath>
		<path class="st0" d="M328.3,55.2C291.8,19.9,243.8,0,192.7,0C46,0-46.1,159,27.1,285.4L0,384l101.4-26.4
			c44.2,23.9,80.3,21.7,91.5,23.2c170.1,0,254.8-205.8,135.3-324.9L328.3,55.2z M328.3,55.2"/>
		<path class="st1" d="M193.1,348L193.1,348l-0.4,0c-50.9,0-83.4-24.1-86.6-25.5l-60,15.6l16.1-58.3l-3.8-6
			c-15.8-25.2-24.3-54.3-24.3-84.2C34.1,48.9,206-21.4,305.5,78C404.7,176.4,335.1,348,193.1,348L193.1,348z M193.1,348"/>
	</g>
	<path class="st2" d="M280.1,228.9l-0.1,1.2c-4.8-2.4-28.3-13.9-32.6-15.5c-9.8-3.6-7-0.6-25.9,21c-2.8,3.1-5.6,3.4-10.3,1.2
		c-4.8-2.4-20.2-7.4-38.4-23.8c-14.2-12.7-23.7-28.3-26.6-33.1c-4.7-8.1,5.1-9.3,14-26.1c1.6-3.4,0.8-6-0.4-8.4
		c-1.2-2.4-10.8-25.9-14.8-35.3c-3.8-9.3-7.8-8.2-10.8-8.2c-9.2-0.8-16-0.7-21.9,5.5c-25.8,28.4-19.3,57.7,2.8,88.8
		c43.4,56.8,66.6,67.3,108.9,81.8c11.4,3.6,21.8,3.1,30.1,1.9c9.2-1.5,28.3-11.5,32.3-22.8c4.1-11.3,4.1-20.6,2.9-22.8
		C288,232.3,284.9,231.1,280.1,228.9L280.1,228.9z M280.1,228.9"/>
</g>
</svg>
